# xmcd
#
# Track frame offsets: 
#        150
#        13507
#        26165
#        56485
#        69511
#        81357
#        107956
#        113224
#        126216
#        137393
#        150186
#        167670
#        185133
#        204481
#        217653
#        231848
#        250874
#        268255
#
# Disc length: 3882 seconds
#
# Revision: 0
# Processed by: cddbd v1.5.2PL0 Copyright (c) Steve Scherf et al.
# Submitted via: ExactAudioCopy v0.99pb4
#
DISCID=f70f2812
DTITLE=Various Artist - Het Beste Uit 25 Jaar Funiculi Funicula - CD 2
DYEAR=2016
DGENRE=Chamber Music
TTITLE0=Freddy Birset and Helmut Lotti - Et Maintenant (What Now My Love
TTITLE0=)
TTITLE1=The Righteous Brothers - Ebb Tide
TTITLE2=London Festival Orchestra - Love Story
TTITLE3=Tony Bennett - I Left My Heart In San Francisco
TTITLE4=Danny Williams - Moon River (From 'Breakfast At Tiffany's')
TTITLE5=André Rieu Und Sein Johann Strauss Orchester - And The Waltz G
TTITLE5=oes On
TTITLE6=Vera Lynn - The Loveliest Night Of The Year
TTITLE7=The Platters - I'll Never Smile Again
TTITLE8=Ray Conniff And The Singers - Somewhere My Love
TTITLE9=Frida Boccara - Cent Mille Chansons
TTITLE10=Dana Winner - Hopeloos En Verloren
TTITLE11=Secret Garden - Duo
TTITLE12=Johan Verminnen - Een Vriend Zien Huilen
TTITLE13=Sweet People - Et Les Oiseaux Chantaient
TTITLE14=Maud Wilms - Zoe Se Neet
TTITLE15=Mitsuki Dazai and Michael Hoppé - Maxie's Theme
TTITLE16=Herman Van Veen - Suzanne
TTITLE17=Carlo Maria Giulini and New Philharmonia Orchestra - Molto Alle
TTITLE17=gro (Symphony No. 40 In G Minor, K.550)
EXTD=
EXTT0=
EXTT1=
EXTT2=
EXTT3=
EXTT4=
EXTT5=
EXTT6=
EXTT7=
EXTT8=
EXTT9=
EXTT10=
EXTT11=
EXTT12=
EXTT13=
EXTT14=
EXTT15=
EXTT16=
EXTT17=
PLAYORDER=
